<?xml version="1.0" standalone="no"?>
<!DOCTYPE svg PUBLIC "-//W3C//DTD SVG 20010904//EN"
 "http://www.w3.org/TR/2001/REC-SVG-20010904/DTD/svg10.dtd">
<svg version="1.0" xmlns="http://www.w3.org/2000/svg"
 width="1323.000000pt" height="1323.000000pt" viewBox="0 0 1323.000000 1323.000000"
 preserveAspectRatio="xMidYMid meet">
<metadata>
Created by potrace 1.14, written by Peter Selinger 2001-2017
</metadata>
<g transform="translate(0.000000,1323.000000) scale(0.100000,-0.100000)"
fill="#000000" stroke="none">
<path d="M4445 13122 c-129 -89 -161 -118 -266 -236 -19 -21 -55 -61 -81 -90
l-47 -51 -1 -176 0 -175 58 -170 c60 -173 65 -183 222 -408 8 -11 41 -59 73
-104 l58 -84 -21 -116 c-11 -65 -22 -128 -25 -142 -2 -14 -13 -79 -24 -145
-12 -66 -23 -131 -26 -145 -9 -44 -27 -144 -30 -165 -2 -18 -16 -100 -30 -180
-3 -16 -10 -54 -16 -83 -6 -29 -12 -67 -15 -84 -2 -18 -10 -68 -18 -113 -9
-44 -17 -93 -20 -110 -3 -16 -15 -84 -26 -150 -12 -66 -24 -134 -26 -152 -11
-67 -20 -88 -40 -89 -10 0 -53 -4 -94 -9 -41 -5 -82 -9 -90 -10 -15 -1 -130
-14 -185 -21 -52 -6 -118 -13 -175 -19 -58 -6 -128 -14 -170 -21 -13 -2 -58
-6 -100 -10 -41 -3 -77 -8 -79 -10 -7 -6 -3 -48 13 -154 8 -58 18 -125 21
-150 3 -25 7 -56 10 -70 2 -14 7 -45 10 -70 3 -25 10 -79 16 -120 5 -41 12
-91 14 -110 12 -87 12 -87 68 -95 29 -4 59 -8 67 -10 8 -2 31 -6 50 -9 19 -4
58 -11 85 -16 28 -5 64 -12 80 -15 17 -3 39 -7 50 -9 11 -2 42 -7 69 -11 l48
-7 -6 -91 c-7 -93 -12 -156 -21 -259 -3 -32 -7 -86 -10 -120 -3 -35 -8 -88
-11 -118 -3 -30 -7 -80 -9 -110 -4 -53 -11 -129 -20 -235 -6 -72 -16 -182 -20
-240 -2 -27 -6 -75 -9 -105 -3 -30 -8 -89 -12 -130 -3 -41 -7 -91 -9 -110 -2
-19 -6 -73 -10 -120 -3 -47 -8 -101 -10 -120 -3 -19 -7 -66 -10 -105 -3 -38
-7 -94 -10 -123 -10 -114 -15 -170 -20 -237 -3 -38 -7 -92 -10 -120 -6 -64
-13 -139 -20 -240 -3 -44 -8 -91 -10 -105 -2 -14 -7 -65 -11 -115 -3 -49 -8
-107 -10 -128 -2 -20 -6 -70 -9 -110 -3 -39 -7 -92 -10 -117 -2 -25 -7 -79
-10 -120 -3 -41 -8 -95 -10 -120 -2 -25 -7 -79 -10 -120 -3 -41 -7 -95 -10
-120 -7 -75 -17 -193 -21 -235 -1 -22 -5 -67 -8 -100 -3 -33 -8 -94 -11 -135
-3 -41 -7 -91 -10 -110 -2 -19 -7 -71 -10 -115 -6 -79 -10 -134 -20 -237 -4
-51 -10 -116 -20 -243 -5 -55 -9 -100 -20 -225 -2 -25 -7 -81 -10 -125 -4 -44
-8 -96 -10 -115 -2 -19 -6 -78 -10 -130 -4 -52 -9 -104 -11 -114 -2 -11 -6
-58 -9 -105 -4 -47 -8 -102 -10 -121 -2 -19 -6 -73 -10 -120 -3 -47 -8 -94
-10 -105 -1 -12 -6 -70 -10 -130 -4 -61 -9 -118 -11 -127 -1 -9 -5 -57 -9
-105 -3 -48 -8 -99 -10 -113 -2 -14 -7 -68 -10 -120 -3 -52 -8 -111 -10 -130
-3 -19 -7 -66 -10 -105 -3 -38 -7 -94 -10 -122 -7 -78 -14 -148 -21 -238 -4
-44 -8 -93 -9 -110 -2 -16 -6 -70 -10 -120 -3 -49 -9 -98 -11 -107 -7 -22 -3
-28 134 -237 134 -205 183 -279 352 -539 69 -106 185 -283 258 -394 72 -110
132 -202 132 -204 0 -1 18 -30 41 -64 l40 -61 46 43 c25 24 69 66 98 93 29 28
114 108 190 180 76 72 160 151 187 177 l49 46 2592 1 c1426 0 2611 0 2635 0
42 1 43 2 38 29 -4 15 -8 38 -11 52 -3 14 -9 48 -15 76 -6 28 -13 64 -16 80
-4 24 -58 311 -79 419 -3 17 -10 53 -15 80 -5 28 -24 131 -44 230 -19 99 -37
192 -40 208 -3 15 -10 53 -16 85 -5 31 -12 68 -15 82 -3 14 -8 41 -11 60 -4
19 -9 44 -11 55 -6 29 -11 55 -18 95 -3 19 -12 67 -20 105 -8 39 -16 81 -18
95 -30 160 -49 263 -58 302 -6 25 -12 57 -14 70 -2 12 -10 59 -19 103 -22 115
-26 134 -35 190 -5 28 -12 61 -15 75 -3 14 -8 36 -10 50 -5 26 -21 114 -31
165 -3 17 -8 41 -10 55 -3 14 -7 34 -9 45 -3 11 -5 22 -5 25 -1 7 -91 -141
-91 -150 0 -5 -4 -10 -8 -12 -4 -2 -21 -25 -36 -53 -16 -27 -128 -215 -248
-418 l-219 -367 -1757 2 c-1196 2 -1756 6 -1755 13 1 6 4 85 8 175 3 91 8 203
10 250 9 219 17 403 20 485 2 50 6 153 10 230 3 77 8 187 10 245 3 58 7 161
10 230 3 69 7 179 10 245 3 66 7 174 10 240 3 66 7 176 10 245 3 69 7 175 10
235 3 61 7 162 10 225 2 63 7 171 10 240 3 69 7 175 10 235 2 61 7 175 10 255
3 80 8 192 11 250 2 58 7 155 9 215 6 156 15 362 20 490 3 61 7 160 10 220 2
61 7 164 9 230 3 66 8 181 11 255 3 74 7 176 10 225 2 50 7 160 10 245 4 85 8
191 10 235 2 44 6 160 10 257 9 237 4 215 56 222 19 3 84 13 144 21 61 9 122
18 136 20 14 3 43 7 65 10 78 10 189 26 204 31 14 3 16 55 15 435 0 372 -2
432 -15 439 -13 7 -108 27 -220 46 -14 3 -31 7 -39 10 -8 2 -30 7 -50 10 -20
3 -52 9 -71 14 -19 5 -48 12 -65 14 -16 3 -41 8 -55 11 -14 3 -40 8 -58 11
-18 3 -34 9 -36 13 -4 6 -65 322 -71 366 -3 26 -21 124 -45 250 -11 55 -22
114 -25 130 -10 57 -16 91 -45 245 -16 85 -32 169 -35 185 -3 17 -17 93 -31
170 -14 77 -28 155 -30 174 -3 19 -6 37 -8 40 -3 4 -7 25 -10 47 -4 22 -9 51
-11 64 -21 105 -30 88 116 222 174 159 199 184 204 203 2 11 31 91 64 177 l60
157 -67 225 c-72 238 -66 226 -168 342 -11 11 -44 49 -74 83 -30 35 -64 73
-75 85 -11 12 -34 38 -51 58 -28 32 -47 40 -202 87 l-171 51 -183 0 -183 -1
-140 -97z"/>
</g>
</svg>
